<?xml version="1.0" standalone="no"?>
<!DOCTYPE svg PUBLIC "-//W3C//DTD SVG 20010904//EN"
 "http://www.w3.org/TR/2001/REC-SVG-20010904/DTD/svg10.dtd">
<svg version="1.0" xmlns="http://www.w3.org/2000/svg"
 width="1080.000000pt" height="1080.000000pt" viewBox="0 0 1080.000000 1080.000000"
 preserveAspectRatio="xMidYMid meet">
<metadata>
Created by potrace 1.14, written by Peter Selinger 2001-2017
</metadata>
<g transform="translate(0.000000,1080.000000) scale(0.100000,-0.100000)"
fill="#000000" stroke="none">
<path d="M1440 5400 l0 -4750 3958 0 3958 0 0 4748 -1 4747 -3957 3 -3958 2 0
-4750z m7698 -5 c-3 -4027 -5 -4540 -18 -4541 -8 0 -23 4 -32 8 -10 5 -18 5
-18 1 0 -10 -453 -8 -469 1 -6 4 -11 3 -11 -2 0 -10 -92 -8 -109 2 -6 4 -11 3
-11 -2 0 -10 -92 -8 -109 2 -6 4 -11 3 -11 -2 0 -10 -92 -8 -109 2 -6 4 -11 3
-11 -2 0 -10 -92 -8 -109 2 -6 4 -11 4 -11 -1 0 -10 -453 -9 -469 1 -6 4 -11
3 -11 -2 0 -10 -92 -8 -109 2 -6 4 -11 3 -11 -2 0 -10 -92 -8 -109 2 -6 4 -11
3 -11 -2 0 -10 -92 -8 -109 2 -6 4 -11 3 -11 -2 0 -10 -92 -8 -109 2 -6 4 -11
4 -11 -1 0 -10 -453 -9 -469 1 -6 4 -11 3 -11 -2 0 -10 -92 -8 -109 2 -6 4
-11 3 -11 -2 0 -10 -92 -8 -109 2 -6 4 -11 3 -11 -2 0 -10 -92 -8 -109 2 -6 4
-11 3 -11 -2 0 -10 -92 -8 -109 2 -6 4 -11 4 -11 -1 0 -10 -453 -9 -469 1 -6
4 -11 3 -11 -2 0 -10 -92 -8 -109 2 -6 4 -11 3 -11 -2 0 -10 -92 -8 -109 2 -6
4 -11 3 -11 -2 0 -10 -92 -8 -109 2 -6 4 -11 3 -11 -2 0 -10 -92 -8 -109 2 -6
4 -11 4 -11 -1 0 -10 -453 -9 -469 1 -6 4 -11 3 -11 -2 0 -10 -92 -8 -109 2
-6 4 -11 3 -11 -2 0 -10 -92 -8 -109 2 -6 4 -11 3 -11 -2 0 -10 -92 -8 -109 2
-6 4 -11 3 -11 -2 0 -10 -92 -8 -109 2 -6 4 -11 4 -11 -1 0 -10 -453 -9 -469
1 -6 4 -11 3 -11 -2 0 -10 -92 -8 -109 2 -6 4 -11 3 -11 -2 0 -10 -92 -8 -109
2 -6 4 -11 3 -11 -2 0 -10 -92 -8 -109 2 -6 4 -11 3 -11 -2 0 -10 -92 -8 -109
2 -6 4 -11 4 -11 -1 0 -10 -453 -9 -469 1 -6 4 -11 3 -11 -2 0 -10 -92 -8
-109 2 -6 4 -11 3 -11 -2 0 -10 -92 -8 -109 2 -6 4 -11 3 -11 -2 0 -10 -92 -8
-109 2 -6 4 -11 3 -11 -2 0 -10 -92 -8 -109 2 -6 4 -11 4 -11 -1 0 -10 -453
-9 -469 1 -6 4 -11 3 -11 -2 0 -10 -92 -8 -109 2 -6 4 -11 3 -11 -1 0 -5 -20
-8 -45 -8 l-45 0 0 55 c-1 75 -1 8890 0 8965 l0 60 3740 0 3740 0 -2 -4540z"/>
<path d="M4940 8729 c-346 -54 -597 -154 -850 -338 -91 -66 -227 -201 -298
-296 -117 -157 -218 -404 -247 -605 -3 -19 -7 -44 -10 -55 -23 -111 -24 -520
0 -587 2 -7 6 -31 9 -53 16 -153 107 -398 203 -548 24 -37 43 -72 43 -77 0 -6
5 -10 10 -10 6 0 10 -5 10 -10 0 -6 30 -50 67 -98 215 -281 477 -489 1153
-916 118 -75 231 -145 250 -156 151 -88 425 -274 620 -423 236 -180 419 -359
526 -512 76 -110 162 -322 181 -445 3 -19 9 -55 13 -80 14 -73 5 -384 -13
-480 -9 -47 -19 -98 -22 -113 -17 -87 -101 -273 -161 -355 -140 -193 -377
-354 -619 -422 -80 -23 -84 -23 -155 -35 -25 -4 -54 -9 -65 -12 -30 -6 -329
-6 -351 0 -11 3 -49 9 -86 12 -37 3 -75 8 -85 10 -553 116 -872 409 -1121
1030 -74 185 -152 483 -178 680 -2 17 -6 41 -9 55 -3 14 -7 50 -10 80 -19 189
-24 232 -30 239 -3 3 -52 6 -108 6 l-102 1 -1 -431 c-2 -425 -13 -1288 -19
-1415 -1 -36 -6 -140 -10 -233 l-7 -167 106 1 c100 1 106 2 111 22 2 12 11 58
19 102 38 201 91 285 180 285 23 0 67 -7 97 -16 49 -15 80 -29 189 -91 164
-92 239 -133 244 -133 3 0 45 -19 94 -43 49 -23 93 -43 98 -44 5 -1 41 -14 79
-29 39 -14 77 -27 85 -29 8 -2 51 -13 95 -24 163 -42 348 -61 600 -60 240 0
289 4 525 44 473 81 912 341 1180 700 60 80 160 280 199 396 33 101 66 248 76
344 3 33 8 75 11 93 7 44 8 272 1 347 -29 318 -108 548 -278 800 -37 55 -76
109 -86 120 -10 11 -31 37 -47 59 -31 41 -209 223 -266 272 -96 81 -196 159
-305 237 -66 48 -124 90 -130 94 -5 5 -28 20 -50 33 -22 13 -42 27 -45 30 -15
17 -306 204 -560 360 -393 242 -738 469 -905 594 -75 57 -224 198 -273 258
-179 223 -257 395 -287 629 -11 85 -8 277 5 364 70 463 420 797 915 875 158
25 442 10 600 -32 22 -5 47 -12 56 -13 34 -7 157 -57 224 -92 226 -116 430
-333 578 -613 122 -232 220 -534 252 -780 3 -25 8 -52 10 -60 2 -8 7 -51 11
-95 3 -44 8 -83 10 -87 2 -3 51 -6 109 -6 l105 0 1 212 c1 481 12 1068 24
1331 8 178 17 317 21 340 l4 24 -110 0 c-106 -1 -110 -1 -111 -22 0 -12 -2
-29 -4 -37 -2 -8 -6 -31 -9 -50 -26 -144 -72 -249 -121 -280 -54 -33 -139 -23
-248 31 -69 34 -73 36 -175 99 -120 73 -133 81 -230 132 -51 26 -99 48 -106
48 -8 0 -16 3 -18 8 -10 22 -249 94 -358 108 -30 3 -82 10 -115 14 -114 15
-481 8 -605 -11z"/>
</g>
</svg>
